<svg xmlns="http://www.w3.org/2000/svg" version="1.1" xmlns:xlink="http://www.w3.org/1999/xlink" xmlns:svgjs="http://svgjs.dev/svgjs" width="2000" height="1500" viewBox="0 0 2000 1500"><rect width="2000" height="1500" fill="#000000"></rect><g transform="matrix(0.75,0,0,0.75,249.090909090909,522.5634576003074)"><svg viewBox="0 0 396 120" data-background-color="#ffffff" preserveAspectRatio="xMidYMid meet" height="606" width="2000" xmlns="http://www.w3.org/2000/svg" xmlns:xlink="http://www.w3.org/1999/xlink"><g id="tight-bounds" transform="matrix(1,0,0,1,0.2400000000000091,0.04925211873072044)"><svg viewBox="0 0 395.52 119.90149576253853" height="119.90149576253853" width="395.52"><g><svg viewBox="0 0 529.5394799999999 160.52936821732618" height="119.90149576253853" width="395.52"><g><svg viewBox="0 0 395.52 160.52936821732618" height="160.52936821732618" width="395.52"><g id="textblocktransform"><svg viewBox="0 0 395.52 160.52936821732618" height="160.52936821732618" width="395.52" id="textblock"><g><rect width="395.52" height="117.24867850267378" fill="none" stroke-width="9.018103199999999" stroke="#ffffff" data-fill-palette-color="none" data-stroke-palette-color="tertiary"></rect><rect width="395.52" height="43.280689714652404" y="117.24867850267378" fill="#ffffff" data-fill-palette-color="tertiary"></rect></g><g><svg viewBox="0 0 395.52 117.24867850267378" height="117.24867850267378" width="395.52"><g transform="matrix(1,0,0,1,23.607599999999998,23.607599999999998)"><svg width="348.3048" viewBox="4.1 -36 233.73000000000002 47" height="70.03347850267379" data-palette-color="url(#4287d46c-2beb-4fbb-9bb5-8582299204af)"></svg></g></svg></g></svg></g></svg></g><g transform="matrix(1,0,0,1,407.3238,39.28899628561304)"><svg viewBox="0 0 122.21567999999998 81.9513756461001" height="81.9513756461001" width="122.21567999999998"><g><svg xmlns="http://www.w3.org/2000/svg" xmlns:xlink="http://www.w3.org/1999/xlink" version="1.1" x="0" y="0" viewBox="2.2 15.4 85.9 57.6" enable-background="new 0 0 90 90" xml:space="preserve" height="81.9513756461001" width="122.21567999999998" class="icon-icon-0" data-fill-palette-color="accent" id="icon-0"><g fill="#ff4136" data-fill-palette-color="accent"><path d="M6.6 25c0 1.4 1.1 2.5 2.5 2.5s2.5-1.1 2.5-2.5-1.1-2.5-2.5-2.5S6.6 23.6 6.6 25zM10.7 25c0 0.9-0.7 1.6-1.6 1.6-0.9 0-1.6-0.7-1.6-1.6 0-0.9 0.7-1.6 1.6-1.6C10 23.4 10.7 24.1 10.7 25z" fill="#ffffff" data-fill-palette-color="accent"></path><path d="M64.3 27.8H17.2v14.1h47.1V27.8zM63.4 41H18.1V28.7h45.3V41z" fill="#ffffff" data-fill-palette-color="accent"></path><path d="M17.2 53.3H30v-9.7H17.2V53.3zM18.1 44.5h10.9v7.9H18.1V44.5z" fill="#ffffff" data-fill-palette-color="accent"></path><rect x="32.9" y="44.2" width="31" height="0.9" fill="#ffffff" data-fill-palette-color="accent"></rect><rect x="32.9" y="46.6" width="31" height="0.9" fill="#ffffff" data-fill-palette-color="accent"></rect><rect x="32.9" y="49.1" width="31" height="0.9" fill="#ffffff" data-fill-palette-color="accent"></rect><rect x="32.9" y="51.6" width="18" height="0.9" fill="#ffffff" data-fill-palette-color="accent"></rect><rect x="27.8" y="70.5" width="26.1" height="2.5" fill="#ffffff" data-fill-palette-color="accent"></rect><path d="M4.1 20.5h73.5v10.9h1.8V20.5c0-2.8-2.3-5.1-5.1-5.1H7.3c-2.8 0-5.1 2.3-5.1 5.1v38c0 2.8 2.3 5.1 5.1 5.1h24.1L31 69.4h1.8l0.5-5.8h15.1l0.5 5.8h1.8l-0.5-5.8h15.9v-6H4.1V20.5z" fill="#ffffff" data-fill-palette-color="accent"></path><path d="M82.2 32.3h-9.2c-3.3 0-5.9 2.7-5.9 5.9v28.1c0 3.3 2.7 5.9 5.9 5.9h9.2c3.3 0 5.9-2.7 5.9-5.9V38.2C88.1 35 85.4 32.3 82.2 32.3zM68.2 64.8V38.6h18.7v26.2H68.2zM75.9 35.2h3.3c0.3 0 0.6 0.3 0.6 0.6s-0.3 0.6-0.6 0.6h-3.3c-0.3 0-0.6-0.3-0.6-0.6S75.5 35.2 75.9 35.2zM79.3 68c0 0.7-0.6 1.3-1.3 1.3h-0.7c-0.7 0-1.3-0.6-1.3-1.3V68c0-0.7 0.6-1.3 1.3-1.3h0.7C78.6 66.6 79.3 67.2 79.3 68L79.3 68z" fill="#ffffff" data-fill-palette-color="accent"></path><path d="M68.9 49.9h17.2v-6.7H68.9V49.9zM69.7 44h15.5v5H69.7V44z" fill="#ffffff" data-fill-palette-color="accent"></path><path d="M77.2 50.3h-8.4V57h8.4V50.3zM76.4 56.2h-6.6v-5h6.6V56.2z" fill="#ffffff" data-fill-palette-color="accent"></path><path d="M77.7 57h8.4v-6.7h-8.4V57zM78.6 51.2h6.6v5h-6.6V51.2z" fill="#ffffff" data-fill-palette-color="accent"></path><path d="M77.4 42.6c1 0 1.8-0.8 1.8-1.8S78.3 39 77.4 39s-1.8 0.8-1.8 1.8S76.4 42.6 77.4 42.6zM77.4 39.9c0.5 0 0.9 0.4 0.9 0.9s-0.4 0.9-0.9 0.9-0.9-0.4-0.9-0.9S76.8 39.9 77.4 39.9z" fill="#ffffff" data-fill-palette-color="accent"></path><rect x="68.9" y="57.9" width="17.2" height="0.9" fill="#ffffff" data-fill-palette-color="accent"></rect><rect x="68.9" y="59.6" width="17.2" height="0.9" fill="#ffffff" data-fill-palette-color="accent"></rect><rect x="68.9" y="61.2" width="17.2" height="0.9" fill="#ffffff" data-fill-palette-color="accent"></rect><rect x="68.9" y="62.8" width="10.1" height="0.9" fill="#ffffff" data-fill-palette-color="accent"></rect></g></svg></g></svg></g></svg></g><defs></defs><mask id="5f139226-b426-49cb-ab83-778006c639b8"><g id="SvgjsG1044"><svg viewBox="0 0 395.52 119.90149576253853" height="119.90149576253853" width="395.52"><g><svg viewBox="0 0 529.5394799999999 160.52936821732618" height="119.90149576253853" width="395.52"><g><svg viewBox="0 0 395.52 160.52936821732618" height="160.52936821732618" width="395.52"><g id="SvgjsG1043"><svg viewBox="0 0 395.52 160.52936821732618" height="160.52936821732618" width="395.52" id="SvgjsSvg1042"><g><rect width="395.52" height="117.24867850267378" fill="black" stroke-width="9.018103199999999" stroke="#ffffff" data-stroke-palette-color="tertiary"></rect><rect width="395.52" height="43.280689714652404" y="117.24867850267378" fill="black"></rect></g><g><svg viewBox="0 0 395.52 117.24867850267378" height="117.24867850267378" width="395.52"><g transform="matrix(1,0,0,1,23.607599999999998,23.607599999999998)"><svg width="348.3048" viewBox="4.1 -36 233.73000000000002 47" height="70.03347850267379" data-palette-color="url(#4287d46c-2beb-4fbb-9bb5-8582299204af)"><path d="M8.3 0L4.1 0 4.1-35 14.85-35Q18.9-35 21.53-33.65 24.15-32.3 25.45-29.98 26.75-27.65 26.75-24.7L26.75-24.7Q26.75-21.25 24.98-18.63 23.2-16 19.55-14.95L19.55-14.95 27.15 0 22.15 0 15.1-14.35 14.85-14.35 8.3-14.35 8.3 0ZM8.3-31.2L8.3-18.2 14.7-18.2Q18.7-18.2 20.58-20.03 22.45-21.85 22.45-24.7L22.45-24.7Q22.45-27.7 20.63-29.45 18.8-31.2 14.65-31.2L14.65-31.2 8.3-31.2ZM44.65 0.6L44.65 0.6Q40.95 0.6 38.05-1.58 35.15-3.75 33.52-7.8 31.9-11.85 31.9-17.5L31.9-17.5Q31.9-23.1 33.55-27.15 35.2-31.2 38.22-33.4 41.25-35.6 45.4-35.6L45.4-35.6Q50.35-35.6 53.47-32.7 56.6-29.8 57.2-24.9L57.2-24.9 52.55-24.9Q52.05-27.9 50.22-29.78 48.4-31.65 45.4-31.65L45.4-31.65Q41.1-31.65 38.65-27.9 36.2-24.15 36.2-17.5L36.2-17.5Q36.2-10.75 38.65-7.05 41.1-3.35 45-3.35L45-3.35Q47.8-3.35 49.6-5.03 51.4-6.7 52.32-9.33 53.25-11.95 53.35-14.75L53.35-14.75 45.55-14.75 45.55-18.35 57.65-18.35 57.65 0 53.8 0 53.45-5.3 53.25-5.3Q52.2-2.6 50.17-1 48.15 0.6 44.65 0.6ZM75.34 0L63.3 0 63.3-35 74.95-35Q80.4-35 83.15-32.5 85.9-30 85.9-26.1L85.9-26.1Q85.9-23.05 84.25-21.08 82.59-19.1 80.55-18.3L80.55-18.3 80.55-17.95Q83-17.15 84.84-15.05 86.7-12.95 86.7-9.65L86.7-9.65Q86.7-6.95 85.37-4.78 84.05-2.6 81.52-1.3 79 0 75.34 0L75.34 0ZM67.5-31.2L67.5-19.9 74.65-19.9Q78-19.9 79.77-21.38 81.55-22.85 81.55-25.65L81.55-25.65Q81.55-28.3 79.8-29.75 78.05-31.2 74.5-31.2L74.5-31.2 67.5-31.2ZM67.5-16.25L67.5-3.85 74.9-3.85Q78.5-3.85 80.45-5.48 82.4-7.1 82.4-10.05L82.4-10.05Q82.4-13 80.34-14.63 78.3-16.25 74.8-16.25L74.8-16.25 67.5-16.25ZM127.94 11L124.59 11 124.59 7.15 127.64 7.15Q129.54 7.15 130.34 6.4 131.14 5.65 131.14 3.75L131.14 3.75 131.14-21.2 124.99-21.2 124.99-24.8 131.14-24.8 131.14-28.75Q131.14-32.6 132.99-34.3 134.84-36 138.59-36L138.59-36 144.54-36 144.54-32.2 138.84-32.2Q136.99-32.2 136.17-31.43 135.34-30.65 135.34-28.75L135.34-28.75 135.34-24.8 144.54-24.8 144.54-21.2 135.34-21.2 135.34 3.75Q135.34 7.6 133.49 9.3 131.64 11 127.94 11L127.94 11ZM162.89 0.6L162.89 0.6Q159.94 0.6 157.99-0.45 156.04-1.5 155.09-3.23 154.14-4.95 154.14-7L154.14-7Q154.14-10.8 156.91-12.78 159.69-14.75 164.34-14.75L164.34-14.75 171.14-14.75 171.14-15.25Q171.14-21.75 165.19-21.75L165.19-21.75Q162.79-21.75 161.16-20.7 159.54-19.65 159.09-17.4L159.09-17.4 154.79-17.4Q155.04-19.9 156.46-21.7 157.89-23.5 160.14-24.45 162.39-25.4 165.19-25.4L165.19-25.4Q170.49-25.4 172.91-22.63 175.34-19.85 175.34-15.25L175.34-15.25 175.34 0 171.74 0 171.39-3.85 171.04-3.85Q169.94-2.05 168.11-0.73 166.29 0.6 162.89 0.6ZM163.64-3.1L163.64-3.1Q166.04-3.1 167.71-4.25 169.39-5.4 170.26-7.3 171.14-9.2 171.14-11.45L171.14-11.45 164.69-11.45Q161.29-11.45 159.91-10.3 158.54-9.15 158.54-7.25L158.54-7.25Q158.54-5.3 159.84-4.2 161.14-3.1 163.64-3.1ZM202.54 0L184.19 0 184.19-3.6 190.54-3.6 190.54-19.95Q190.54-21.2 189.34-21.2L189.34-21.2 184.84-21.2 184.84-24.8 190.89-24.8Q192.54-24.8 193.54-23.9 194.54-23 194.54-21.25L194.54-21.25 194.54-20.2 194.74-20.2Q195.34-22.7 197.01-24.05 198.69-25.4 201.69-25.4L201.69-25.4 206.24-25.4 206.24-20.95 201.09-20.95Q198.04-20.95 196.39-18.93 194.74-16.9 194.74-13.75L194.74-13.75 194.74-3.6 202.54-3.6 202.54 0ZM215.98 0L211.83 0 211.83-24.8 215.28-24.8 215.73-21.9 215.98-21.9Q216.63-23.4 217.96-24.4 219.28-25.4 221.18-25.4L221.18-25.4Q223.08-25.4 224.41-24.48 225.73-23.55 226.33-21.9L226.33-21.9 226.53-21.9Q227.18-23.4 228.63-24.4 230.08-25.4 232.13-25.4L232.13-25.4Q234.98-25.4 236.41-23.48 237.83-21.55 237.83-18.35L237.83-18.35 237.83 0 233.73 0 233.73-17.7Q233.73-19.5 233.01-20.55 232.28-21.6 230.68-21.6L230.68-21.6Q229.03-21.6 227.98-20.35 226.93-19.1 226.93-16.8L226.93-16.8 226.93 0 222.78 0 222.78-17.7Q222.78-19.5 222.08-20.55 221.38-21.6 219.78-21.6L219.78-21.6Q218.13-21.6 217.06-20.35 215.98-19.1 215.98-16.8L215.98-16.8 215.98 0Z" opacity="1" transform="matrix(1,0,0,1,0,0)" fill="white" class="wordmark-text-0" id="SvgjsPath1041"></path></svg></g></svg></g></svg></g></svg></g><g transform="matrix(1,0,0,1,407.3238,39.28899628561304)"><svg viewBox="0 0 122.21567999999998 81.9513756461001" height="81.9513756461001" width="122.21567999999998"><g><svg xmlns="http://www.w3.org/2000/svg" xmlns:xlink="http://www.w3.org/1999/xlink" version="1.1" x="0" y="0" viewBox="2.2 15.4 85.9 57.6" enable-background="new 0 0 90 90" xml:space="preserve" height="81.9513756461001" width="122.21567999999998" class="icon-icon-0" data-fill-palette-color="accent" id="SvgjsSvg1040"><g fill="black"><path d="M6.6 25c0 1.4 1.1 2.5 2.5 2.5s2.5-1.1 2.5-2.5-1.1-2.5-2.5-2.5S6.6 23.6 6.6 25zM10.7 25c0 0.9-0.7 1.6-1.6 1.6-0.9 0-1.6-0.7-1.6-1.6 0-0.9 0.7-1.6 1.6-1.6C10 23.4 10.7 24.1 10.7 25z" fill="black"></path><path d="M64.3 27.8H17.2v14.1h47.1V27.8zM63.4 41H18.1V28.7h45.3V41z" fill="black"></path><path d="M17.2 53.3H30v-9.7H17.2V53.3zM18.1 44.5h10.9v7.9H18.1V44.5z" fill="black"></path><rect x="32.9" y="44.2" width="31" height="0.9" fill="black"></rect><rect x="32.9" y="46.6" width="31" height="0.9" fill="black"></rect><rect x="32.9" y="49.1" width="31" height="0.9" fill="black"></rect><rect x="32.9" y="51.6" width="18" height="0.9" fill="black"></rect><rect x="27.8" y="70.5" width="26.1" height="2.5" fill="black"></rect><path d="M4.1 20.5h73.5v10.9h1.8V20.5c0-2.8-2.3-5.1-5.1-5.1H7.3c-2.8 0-5.1 2.3-5.1 5.1v38c0 2.8 2.3 5.1 5.1 5.1h24.1L31 69.4h1.8l0.5-5.8h15.1l0.5 5.8h1.8l-0.5-5.8h15.9v-6H4.1V20.5z" fill="black"></path><path d="M82.2 32.3h-9.2c-3.3 0-5.9 2.7-5.9 5.9v28.1c0 3.3 2.7 5.9 5.9 5.9h9.2c3.3 0 5.9-2.7 5.9-5.9V38.2C88.1 35 85.4 32.3 82.2 32.3zM68.2 64.8V38.6h18.7v26.2H68.2zM75.9 35.2h3.3c0.3 0 0.6 0.3 0.6 0.6s-0.3 0.6-0.6 0.6h-3.3c-0.3 0-0.6-0.3-0.6-0.6S75.5 35.2 75.9 35.2zM79.3 68c0 0.7-0.6 1.3-1.3 1.3h-0.7c-0.7 0-1.3-0.6-1.3-1.3V68c0-0.7 0.6-1.3 1.3-1.3h0.7C78.6 66.6 79.3 67.2 79.3 68L79.3 68z" fill="black"></path><path d="M68.9 49.9h17.2v-6.7H68.9V49.9zM69.7 44h15.5v5H69.7V44z" fill="black"></path><path d="M77.2 50.3h-8.4V57h8.4V50.3zM76.4 56.2h-6.6v-5h6.6V56.2z" fill="black"></path><path d="M77.7 57h8.4v-6.7h-8.4V57zM78.6 51.2h6.6v5h-6.6V51.2z" fill="black"></path><path d="M77.4 42.6c1 0 1.8-0.8 1.8-1.8S78.3 39 77.4 39s-1.8 0.8-1.8 1.8S76.4 42.6 77.4 42.6zM77.4 39.9c0.5 0 0.9 0.4 0.9 0.9s-0.4 0.9-0.9 0.9-0.9-0.4-0.9-0.9S76.8 39.9 77.4 39.9z" fill="black"></path><rect x="68.9" y="57.9" width="17.2" height="0.9" fill="black"></rect><rect x="68.9" y="59.6" width="17.2" height="0.9" fill="black"></rect><rect x="68.9" y="61.2" width="17.2" height="0.9" fill="black"></rect><rect x="68.9" y="62.8" width="10.1" height="0.9" fill="black"></rect></g></svg></g></svg></g></svg></g><defs><mask></mask></defs></svg><rect width="395.52" height="119.90149576253853" fill="black" stroke="none" visibility="hidden"></rect></g></mask><linearGradient x1="0.054" x2="0.941" y1="0.5" y2="0.5" id="4287d46c-2beb-4fbb-9bb5-8582299204af"><stop stop-color="#0f3054" offset="0"></stop><stop stop-color="#3b8dcb" offset="0.498"></stop><stop stop-color="#0f3054" offset="1"></stop></linearGradient><rect width="395.52000000000004" height="119.90149576253853" fill="#ffffff" mask="url(#5f139226-b426-49cb-ab83-778006c639b8)" data-fill-palette-color="primary"></rect></svg><rect width="395.52" height="119.90149576253853" fill="none" stroke="none" visibility="hidden"></rect></g></svg></g></svg>